Patient4_TMGait_0pt4_02_left_26_EMG.mot
version=1
nRows=13
nColumns=33
inDegrees=no
endheader
time	1LAddLong	2LGlutMax	3LGlutMed	4LIliopsoas	5LSemiMemb	6LBicFemLong	7LRecFem	8LVastMed	9LVastLat	10LGasMed	11LTibAnt	12lTibPost	13LPeroneusLong	14LSol	15LExtDigLong	16LFlexDigLong	17RAddLong	18RGlutMax	19RGlutMed	20RIliopsoas	21RSemiMemb	22RBicFemLong	23RRecFem	24RVastMed	25RVastLat	26RGasMed	27RTibAnt	28RTibPost	29RPeroneusLong	30RSol	31RExtDigLong	32RFlexDigLong
36.303	0.004272	0.025482	0.008392	0.002289	0.000305	0.012207	-0.017395	0.003815	0.15747	-0.046692	0.049744	-0.007324	0.034485	-0.010834	0.070953	0.002289	0.013428	-0.064545	0.79575	0.27725	-0.010071	0.066681	-0.065308	-0.084839	-0.12772	-0.061188	-0.042572	0.00824	-0.34103	0.034943	0.00473	-0.001526
36.304	0.01236	0.049591	0.00412	0.001526	-0.017548	-0.031738	-0.013885	0.007629	0.15671	-0.031891	0.084839	0.000305	0.002289	-0.023041	0.31036	0.008698	0.000305	-0.09201	-0.73669	0.28961	-0.014648	0.089264	-0.26764	-0.15213	-0.1207	-0.074158	0.19058	-0.012665	0.99518	-0.18082	0.003662	-0.009003
36.305	-0.010834	0.036926	-0.017548	0.003052	-0.011597	-0.047607	-0.003967	0.008392	0.1564	-0.027771	-0.006256	-0.006409	0.029144	-0.016174	0.020447	0.007477	0.010071	-0.072784	-0.87952	0.083008	-0.011902	0.06134	-0.32059	-0.32089	-0.055542	-0.043488	0.1828	-0.017853	1.5263	-0.26138	0.002441	-0.012817
36.306	-0.004578	0.051117	0.010223	0.001221	-0.00946	-0.03006	0.001068	0.010529	0.15213	-0.019531	-0.071869	0.001831	0.037537	-0.036011	-0.071716	0.002136	0.016632	-0.07431	-0.42877	0.036163	-0.014954	0.056152	-0.17777	-0.19012	-0.064087	-0.010223	0.095978	-0.062408	0.14236	-0.38849	-0.009308	-0.011444
36.307	-0.011749	0.074005	0.03067	0.020752	-0.038605	-0.016785	0.002594	0.001984	0.17792	-0.031433	-0.016022	-0.00351	0.015869	-0.070801	0.44174	-0.003662	0.018921	-0.024567	-0.12116	-0.003815	-0.013885	-0.030212	0.28305	-0.002441	-0.066986	-0.001068	0.011902	-0.040436	0.69473	-0.00473	0.003967	-0.019379
36.308	0.009308	0.074463	0.01709	0.019073	-0.031891	-0.030823	-0.009308	-0.004883	0.15991	-0.018616	0.15228	-0.002136	0.027618	-0.055237	0.059204	-0.002594	0.014648	0.044861	-0.022583	-0.047302	-0.019226	-0.10407	0.39383	0.084686	-0.083313	0.014038	-0.16647	0.059814	-0.22232	0.27786	0.001678	-0.009766
36.309	0.019531	0.095825	0.004883	0.00946	-0.03006	-0.092926	-0.018616	-0.002136	0.17151	-0.025787	0.21454	0.000153	0.005341	-0.03418	-0.58731	-0.007172	0.011292	0.031128	0.17914	-0.103	-0.018158	-0.10346	0.47897	-0.028229	-0.20523	0.007477	-0.11322	0.006866	-0.51331	0.061493	-0.001526	-0.014496
36.31	0.023041	0.079041	-0.012665	0.006409	0.036316	-0.051727	-0.019226	-0.002441	0.15869	-0.04303	-0.062561	-0.003357	0.010986	-0.042572	-0.091248	-0.005798	-0.00412	0.002899	0.3096	-0.1622	-0.000763	-0.063171	0.095215	-0.21927	-0.21896	0.011444	-0.038757	-0.005035	-0.50049	-0.10529	0.005798	-0.017548
36.311	0.015564	0.098114	-0.02121	-0.002441	0.071564	0.007477	-0.005798	-0.005188	0.1535	-0.079041	-0.10544	0.00061	0.075226	-0.022583	-0.11322	-0.00824	-0.009918	-0.024261	0.26611	-0.12436	0.01297	-0.11337	-0.044403	-0.21896	-0.019226	0.012512	0.016785	-0.002899	-1.2097	-0.089264	0.003967	-0.007324
36.312	0.013885	0.10956	-0.017548	-0.015106	0.035858	0.036621	-0.00824	-0.005798	0.15289	-0.06134	-0.052185	0.005188	0.055847	-0.014954	-0.050964	-0.006409	-0.007324	-0.04425	0.35309	-0.11215	-0.005341	-0.18219	0.064697	-0.15274	0.27741	0.003357	-0.05188	-0.013885	0.94971	0.11704	0.001984	-0.013275
36.313	0.013885	0.1178	-0.042725	0.012054	-0.002441	0.014801	-0.014496	0.002899	0.14694	-0.024109	0.011139	0.002594	0.004883	-0.03952	-0.081635	-0.006561	0.006409	0.042419	0.31479	-0.018311	-0.027008	-0.17731	0.29572	-0.112	0.17731	-0.006561	-0.036926	-0.01358	1.1916	0.082092	0.001831	-0.009766
36.314	0.016174	0.097046	-0.10452	0.031281	-0.000305	0.009918	-0.011749	-0.000458	0.14526	-0.007172	-0.094452	-0.002899	-0.037537	-0.068359	-0.10941	0.004272	0.004272	0.054474	0.17639	-0.082397	-0.028381	-0.11658	0.31021	0.15274	0.13687	-0.011444	0.1001	-0.010529	-0.02121	0.11566	0.000763	-0.00946
36.315	0.009003	0.079346	-0.16983	0.008698	0.024261	-0.018768	-0.010834	0.000763	0.14755	-0.029602	-0.10483	-0.001221	-0.042725	-0.080566	-0.10101	-0.011749	0.010071	0.040894	0.10773	-0.09903	-0.020294	-0.09079	0.16953	0.13184	0.047913	0.000763	0.29892	-0.003815	-0.36392	-0.011444	0.003967	0.004425
